<?xml version="1.0" encoding="UTF-8"?>
<svg id="Layer_2" data-name="Layer 2" xmlns="http://www.w3.org/2000/svg" viewBox="0 0 76.28 72.63">
  <defs>
    <style>
      .cls-1 {
        fill: #eae9f3;
      }
    </style>
  </defs>
  <g id="Layer_1-2" data-name="Layer 1">
    <path class="cls-1" d="m4.27,5.42c8.29-2.85,18.29.46,23.24,7.7,2.89,4.23,4.49,9.87,9.12,12.08,4.55,2.17,10.2.02,14.86,1.94,5.63,2.31,7.42,9.26,11.16,14.06,3.33,4.27,8.38,6.93,11.72,11.18,3.35,4.25,2.14,8.05-2.58,10.7-7.27,4.09-13.38-4.31-21.39-2-2.25.65-4.29,2.42-6.62,2.1-3.27-.45-5.37-4.87-8.62-4.3-4.41.77-4.08,9.49-8.55,9.35-2.09-.06-3.45-2.29-5.42-3.01-5.27-1.93-8.63,7.26-14.24,7.42-2.6.07-4.88-1.98-5.89-4.38C.06,65.85.04,63.17.04,60.57.03,45.09.01,29.62,0,14.14,0,8.48,1.17,1.24,6.69,0"/>
  </g>
</svg>