<?xml version="1.0" encoding="UTF-8"?>
<svg id="Layer_2" data-name="Layer 2" xmlns="http://www.w3.org/2000/svg" xmlns:xlink="http://www.w3.org/1999/xlink" viewBox="0 0 179.97 317.7">
  <defs>
    <style>
      .cls-1 {
        fill: none;
      }

      .cls-2 {
        clip-path: url(#clippath);
      }

      .cls-3 {
        fill: #00bbb4;
      }

      .cls-4 {
        fill: #68a2b9;
      }

      .cls-5 {
        fill: #eae9f4;
      }

      .cls-6 {
        fill: #e4bbc1;
      }

      .cls-7 {
        fill: #97d1dc;
      }

      .cls-8 {
        fill: #00a19b;
      }

      .cls-9 {
        fill: #8d9ebc;
      }

      .cls-10 {
        fill: #daa2ab;
      }

      .cls-11 {
        fill: #c5c3d1;
      }

      .cls-12 {
        fill: #416ba9;
      }

      .cls-13 {
        fill: #1a428a;
      }

      .cls-14 {
        fill: #99d9d9;
      }

      .cls-15 {
        fill: #6bcdb2;
      }

      .cls-16 {
        fill: #61b0bc;
      }

      .cls-17 {
        fill: #316094;
      }

      .cls-18 {
        fill: #624b78;
      }

      .cls-19 {
        fill: #5f99af;
      }

      .cls-20 {
        fill: #51312d;
      }

      .cls-21 {
        fill: #7c6990;
      }
    </style>
    <clipPath id="clippath">
      <rect class="cls-1" width="179.97" height="317.7"/>
    </clipPath>
  </defs>
  <g id="OBJECT">
    <g class="cls-2">
      <g id="_2" data-name="2">
        <g>
          <path class="cls-5" d="m43.7-7.76c-4.92,2.81-8.05,8.48-7.81,14.13.24,5.66,3.85,11.04,8.99,13.41,8.01,3.7,19.39.89,24.54,8.06,1.67,2.32,2.24,5.27,3.8,7.67,4.69,7.16,15.24,6.26,23.68,4.8,8.43-1.46,19.3-1.46,22.98,6.27,2.01,4.23,1.23,9.94,4.82,12.94,4.59,3.83,12.27-.17,17.29,3.09,4.05,2.63,4.3,8.62,7.64,12.11,6.67,6.97,21.66.84,26.21,9.34,4.91,9.17-11.01,18.98-7.61,28.81,1.8,5.19,8.84,7.17,13.79,4.78,4.95-2.39,7.78-7.89,8.48-13.35.7-5.45-.38-10.95-1.34-16.36-4.87-27.56-6.65-55.66-5.29-83.61.37-7.68.76-16.12-3.95-22.19-4.57-5.89-12.53-7.72-19.85-9.17-21.92-4.32-44.19-8.67-66.45-6.79-22.26,1.88-44.92,10.84-58.44,28.63"/>
          <path class="cls-5" d="m-8.77,69.14c8.29-2.85,18.29.46,23.24,7.7,2.89,4.23,4.49,9.87,9.12,12.08,4.55,2.17,10.2.02,14.86,1.94,5.63,2.31,7.42,9.26,11.16,14.06,3.33,4.27,8.38,6.93,11.72,11.18,3.35,4.25,2.14,8.05-2.58,10.7-7.27,4.09-13.38-4.31-21.39-2-2.25.65-4.29,2.42-6.62,2.1-3.27-.45-5.37-4.87-8.62-4.3-4.41.77-4.08,9.49-8.55,9.35-2.09-.06-3.45-2.29-5.42-3.01-5.27-1.93-8.63,7.26-14.24,7.42-2.6.07-4.88-1.98-5.89-4.38-1.01-2.4-1.03-5.08-1.03-7.68-.01-15.48-.03-30.95-.04-46.43,0-5.66,1.17-12.9,6.69-14.14"/>
          <path class="cls-11" d="m53.28,243.47c-1.41,0-2.75-1.06-3.07-2.43.9-.53,1.8-1.06,2.7-1.58-1.62-.72-2.48-2.8-1.83-4.45.65-.05,1.3-.1,1.95-.14-2.16-.76-2.4-4.35-.37-5.39.26-2.38.52-4.76.78-7.14,1.4-.4,1.38-2.86-.03-3.23.52-.77,1.05-1.55,1.57-2.32-.76-1.7.29-5.94,2.16-5.94,1.87,0,3.47,1.5,4.16,3.23.69,1.73.67,3.66.64,5.52,2.58,9.27,3.62,18.96,3.08,28.57-2.63,3.28-8.98,1.69-9.75-2.45"/>
          <path class="cls-11" d="m12.86,245.61c-1.65.2-3.31-1.21-3.38-2.87s1.45-3.21,3.11-3.16c-1.79-1.36-3.12-3.31-3.72-5.48.97-1.52,3.13-2.11,4.74-1.31-3.45-.72-4.55-6.16-1.65-8.16-1.3-.93-1.83-2.78-1.22-4.26.61-1.47,2.29-2.42,3.87-2.16-2.75-2.27-2.2-7.35.96-8.99-.17-1.53-.34-3.07-.51-4.6-.21-1.91,3.08-4.35,4-2.66-1.84-2.27-2.89-5.17-2.95-8.09.6-.93,2.11-1.06,2.87-.26-1.53-3.07-1.77-6.75-.66-9.99.81.41,2.51-.93,3.32-.52-2.37-1.64-2.19-5.81.31-7.25.5.56,1,1.12,1.49,1.68-2.59-1.17-2.84-5.46-.4-6.93-1.98-2.7.49-7.26,3.83-7.07.92-1.29,1.65-3.62,2.57-4.91,3.92,3.39,5.86,8.92,4.94,14.02,1.92,1.39,2.42,4.4,1.05,6.34,1.47,8.52,2.68,16.93,4.14,25.45,2.33,1.07.97,5.99-.92,7.73,1.73.61,2.57,2.95,1.62,4.53.56.79.16,2.72.72,3.52-.7.77-1.41,1.55-2.11,2.32,2.63.41,3.42,4.69,1.1,6.02,1.16.97.69,3.06-.04,4.37,3.05,3.8,2.75,9.86-.65,13.34-2.01,2.06-5.71,3.03-7.64.89.15,2.21-2.88,3.33-4.97,2.6-2.09-.74-3.68-2.49-5.7-3.39-2.03-.9-5.08-.36-5.47,1.82"/>
          <path class="cls-3" d="m182.37,171.97c-.09-3.16-3.33-5.86-6.45-5.37-.28,2.97-.56,5.94-.84,8.91-1.47-.95-2.94-1.9-4.41-2.84-1.05,3.07-.48,6.65,1.47,9.24-1.71-.56-3.77.36-4.49,2-.72,1.64-.01,3.78,1.55,4.66-2.26.21-3.1,3.85-1.16,5.02-1.78-.41-3.79.63-4.47,2.32-.69,1.69.03,3.84,1.6,4.78-2.03-.63-4.43.31-5.49,2.15-1.07,1.84-.69,4.39.86,5.84-1.78-.17-2.92,2.59-1.54,3.72-1.33-.13-2.69.88-2.93,2.2-.25,1.32.65,2.75,1.95,3.1-1.7-1.04-4.22-.33-5.12,1.45s0,4.23,1.84,4.99c-1.82.35-3.27,2.1-3.27,3.96s1.46,3.61,3.28,3.95c-2.02,1.47-1.89,5.02.22,6.34-2.13,2.01-.48,6.35,2.44,6.43l26.45.96c2.58-6.49,5.09-12.51,4.7-19.48.11-2.21-1.11-4.44-3.04-5.53,3.06-2.34,3.4-7.46.67-10.18,2.24-3.6,1.84-8.63-.93-11.83,1.59-2.38,1.26-5.85-.74-7.89,1.29-6.84-.32-14.18-4.36-19.85"/>
          <rect class="cls-21" x="-.81" y="246.63" width="182.35" height="17.97"/>
          <path class="cls-18" d="m130.92,243.67s-7.5,4.76-12.63,6.11c-5.13,1.34-7.2,1.86-9.27,2.38-2.07.52-12.43,11.4-15.54,12.43h-16.58l15.54-21.76,5.7-8.29,32.78,9.12Z"/>
          <path class="cls-15" d="m-1.07,245.53c-.27-2.56,3.49-4.39,5.34-2.6.72-.65,1.45-1.3,2.17-1.95,1.6,1.07,3.79,1.17,5.48.25l7.35.82c1.04-2.89,5.89-3.14,7.23-.37,2.59-1.61,6.18-1.4,8.57.49,1.15-1.14,3.19-1.21,4.41-.15,1.81-.9,3.66-1.81,5.66-2.04,2-.23,4.22.34,5.44,1.95.86-.71,1.71-1.41,2.57-2.12.4.49.8.98,1.2,1.47.94-.45,2.18-.13,2.78.71.87-.73,1.74-1.46,2.61-2.19.52.59,1.03,1.17,1.55,1.76.7-.24,1.41-.48,2.11-.72,12.38,3,26.63,3.29,39.15.95,7.48-1.4,15.23-3.74,22.54-1.63,2.09.6,3.01,1.73,4.28,3.51,1.05-.8,2.09-1.59,3.14-2.39.78.37,1.37,1.11,1.56,1.95.5-1.64,3.26-1.82,3.97-.26.61-1.05,2.17-1.41,3.18-.73-.09-.9,1.36-1.22,2.26-1.26.9-.04,1.74.78,1.73,1.68-.06-1.07.85-2.1,1.92-2.17,1.07-.07,2.11.84,2.18,1.91.43-1.96,4.14-.78,5.09.99,1.53-1.98,3.47-3.64,5.67-4.84.45.28.89.57,1.34.85.58.37,1.89.59,2.58.62l.07,2.98c.71-.65,1.43-1.3,2.14-1.94.47.52.93,1.03,1.4,1.55.66-.16,1.32-.31,1.98-.47,2.9-.26,5.79-.53,8.69-.79.86-.48,2.08-.14,2.58.71.71,1.22,2.23,2.36,2.28,3.77.05,1.41-.57,2.94-1.85,3.54-.92.43-1.99.32-3,.2-2.32-.28-4.64-.56-6.96-.84-.26,1.6-3.12,1.66-3.44.07-1.92,1.27-4.8,2.15-7.06,2.57-2.26.42-4.9-.27-6.09-2.23-2.5,1.74-6.4,2.1-8.95.43-2.04.26-4.47,1.14-6.51,1.4-.69.09-1.44.17-2.05-.18s-.9-1.29-.37-1.74c-1.02.75-3.1,1.79-4.12,2.54l-1.99-2.65c-1.33.18-2.57,1.42-3.16,2.63-.71-.68-1.43-1.35-2.14-2.03-1.23.88-2.85,1.61-4.08,2.49-1-1.49-2.83-2.38-4.61-2.25-1.17.08-2.12,1.06-3.16,1.6-.76-.79-1.52-1.59-2.28-2.38-2,1.53-5.57,2.24-8.07,1.92-1.52-.19-3.13-.4-4.04.84-.85-.59-1.71-1.18-2.56-1.77-2.23.46-5.08,1.12-7.35.91-2.12.63-5.53.11-7.74.27-5.6.41-11.19-.73-16.69-1.87-1.62,2.35-6.72,1.59-7.75-1.07-.75,1.75-4.88,2.18-5.66.44-.87,2.03-5.52,1.83-7.04.24-1.93-.12-4.08.33-5.38,1.75-.86-.72-1.72-1.44-2.58-2.15.22.74-1.63,2.09-2.38,1.92-.75-.17-1.1-1.25-.58-1.82-.49,1.78-4.64,2.26-5.97.97-.92-.88-3.05-.32-3.62.82-.65-.51-1.3-1.01-1.96-1.52-.96.71-2.58.71-3.54,1.43-.37-.65-.74-1.29-1.12-1.94-.89.23-1.57,1.09-1.59,2.01-.41.37-1.25-.25-1.66.12-.38-1.22-2.44-1.32-2.95-.15-1.32-1.22-4.77-1.12-6.08.1-.51-.22-1.73-1.05-2.24-1.27-1.31,1.01-2.97,1.54-4.62,1.46.73-1.87-.06-4.21-1.77-5.26"/>
          <path class="cls-14" d="m-1.89,247.56l.83.05c-.27-2.56,3.49-4.39,5.34-2.6.72-.65,1.45-1.3,2.17-1.95,1.6,1.07,3.79,1.17,5.48.25,2.45.27,4.9.55,7.35.82,1.04-2.89,5.89-3.14,7.23-.37,2.59-1.61,6.18-1.4,8.57.49,1.15-1.14,3.19-1.21,4.41-.15,1.81-.9,3.66-1.81,5.66-2.04,2-.23,4.22.34,5.44,1.95.86-.71,1.71-1.41,2.57-2.12.4.49.8.98,1.2,1.47.94-.45,2.18-.13,2.78.71.87-.73,1.74-1.46,2.61-2.19.52.59,1.03,1.17,1.55,1.76.7-.24,1.41-.48,2.11-.72,12.38,3,26.63,3.29,39.15.95,7.48-1.4,15.23-3.74,22.54-1.63,2.09.6,3.01,1.73,4.28,3.51,1.05-.8,2.09-1.59,3.14-2.39.78.37,1.37,1.11,1.56,1.95.5-1.64,3.26-1.82,3.97-.26.61-1.05,2.17-1.41,3.18-.73-.09-.9,1.36-1.22,2.26-1.26.9-.04,1.74.78,1.73,1.68-.06-1.07.85-2.1,1.92-2.17,1.07-.07,2.11.84,2.18,1.91.43-1.96,4.14-.78,5.09.99,1.53-1.98,3.47-3.64,5.67-4.84.45.28.89.57,1.34.85.58.37,1.89.59,2.58.62.02.99.05,1.98.07,2.98.71-.65,1.43-1.3,2.14-1.94.47.52.93,1.03,1.4,1.55.66-.16,1.32-.31,1.98-.47,2.9-.26,5.79-.53,8.69-.79.86-.48,2.08-.14,2.58.71.58.99,1.7,1.94,2.12,3.03.12-.43.18-.89.16-1.33-.05-1.41-1.57-2.56-2.28-3.77-.5-.85-1.71-1.19-2.58-.71-2.9.26-5.79.53-8.69.79-.66.16-1.32.31-1.98.47-.47-.52-.93-1.03-1.4-1.55-.71.65-1.43,1.3-2.14,1.94-.02-.99-.05-1.98-.07-2.98-.69-.03-2-.25-2.58-.62-.45-.28-.89-.57-1.34-.85-2.19,1.2-4.14,2.86-5.67,4.84-.95-1.77-4.66-2.94-5.09-.99-.08-1.07-1.11-1.97-2.18-1.91-1.07.07-1.98,1.1-1.92,2.17.01-.9-.83-1.72-1.73-1.68-.9.04-2.35.36-2.26,1.26-1.01-.68-2.56-.32-3.18.73-.71-1.56-3.47-1.38-3.97.26-.19-.84-.78-1.58-1.56-1.95-1.05.8-2.09,1.59-3.14,2.39-1.26-1.77-2.19-2.9-4.28-3.51-7.31-2.11-15.06.23-22.54,1.63-12.52,2.34-26.77,2.05-39.15-.95-.7.24-1.41.48-2.11.72-.52-.59-1.03-1.17-1.55-1.76-.87.73-1.74,1.46-2.61,2.19-.6-.85-1.84-1.17-2.78-.71-.4-.49-.8-.98-1.2-1.47-.86.71-1.71,1.41-2.57,2.12-1.22-1.6-3.44-2.18-5.44-1.95-2,.23-3.85,1.14-5.66,2.04-1.22-1.06-3.26-.99-4.41.15-2.39-1.9-5.98-2.1-8.57-.49-1.33-2.76-6.18-2.51-7.23.37-2.45-.27-4.9-.55-7.35-.82-1.69.92-3.88.82-5.48-.25-.72.65-1.45,1.3-2.17,1.95-1.85-1.79-5.61.04-5.34,2.6l-2.57-.14c.81.5,1.41,1.28,1.74,2.17Z"/>
          <rect class="cls-16" x="-1.86" y="264.01" width="182.35" height="55.49"/>
          <path class="cls-8" d="m85.62,288.68c0,1.29-9.39,2.33-20.98,2.33s-20.98-1.04-20.98-2.33,9.39-2.33,20.98-2.33,20.98,1.04,20.98,2.33Z"/>
          <path class="cls-10" d="m73.27,256.3s-1.38,11.4.69,14.16c2.07,2.76,3.45,3.8,3.11,6.56-.35,2.76-4.83,8.29-4.83,11.05h-12.78s2.07-17.96,2.07-25.21,11.05-10.02,11.74-6.56Z"/>
          <path class="cls-13" d="m99.69,221.6c-9.67-1.38-34.54-1.38-37.64,12.43-3.11,13.81-2.24,42.31-2.24,42.31l36.78-41.79,3.11-12.95Z"/>
          <path class="cls-10" d="m64.98,274.95s-6.91,7.94-10.71,12.43c-2.82,3.33-1.38,4.49-4.49,8.29-3.11,3.8-6.22,2.42-10.71,3.45s-9.15,2.94-11.91,3.63c-.96.24-2.6,1.34-3.11-.17-.35-1.04,1.34-2.43,1.04-2.24-1.73,1.04-3.28.52-3.11-.17.35-1.38,1.55-2.07,1.55-2.07,0,0-3.28,1.55-3.63.17-.35-1.38,2.24-2.42,2.24-2.42,0,0-3.11,1.73-3.8,0-.69-1.73,2.94-2.76,2.94-2.76,0,0-4.4-.26-3.63-3.11.52-1.9,1.9-1.55,5.01-1.21,3.11.35,6.73-1.73,11.57-3.8,4.84-2.07,5.18,0,9.32-3.45,4.14-3.45,9.67-13.81,9.67-13.81l11.74,7.25Z"/>
          <path class="cls-6" d="m56.33,269.61l-3.09-1.91s-5.53,10.36-9.67,13.81c-4.14,3.45-4.49,1.38-9.32,3.45-4.84,2.07-8.46,4.14-11.57,3.8-3.11-.35-4.49-.69-5.01,1.21-.78,2.85,3.63,3.11,3.63,3.11,0,0-3.63,1.04-2.94,2.76.5,1.25,2.27.69,3.21.28-.74.4-1.89,1.18-1.65,2.13.35,1.38,3.63-.17,3.63-.17,0,0-1.21.69-1.55,2.07-.03.13,0,.26.08.37.62-.22,1.24-.47,1.82-.75,3.24-1.54,6.15-3.76,9.51-5.03,4.31-1.63,9.4-1.72,12.8-4.83,4.26-3.9,4.16-11.06,8.46-14.93l-1.94,3.13c3.33-.98,4.9-5.29,3.61-8.51Z"/>
          <path class="cls-17" d="m133.88,219.52s6.99,24.35-9.32,27.2c-16.32,2.85-27.8-1.81-27.8-1.81,0,0-4.83,9.24-11.05,13.12-6.22,3.89-16.84,11.4-19.17,15.02l-11.91-8.29s25.38-39.54,32.9-41.1c7.51-1.55,46.36-4.14,46.36-4.14Z"/>
          <path class="cls-12" d="m87.52,223.67c-7.51,1.55-32.9,41.1-32.9,41.1l.99.69c7.73-10.09,15.47-20.18,23.2-30.27,3.24-4.23,7.48-8.92,12.78-8.36-.22-.51-.44-1.02-.66-1.53,3.52-1.09,7.04-2.18,10.57-3.27-6.28.57-11.65,1.16-13.98,1.64Z"/>
          <path class="cls-4" d="m99,165.82s-9.93-1.47-13.04,9.93c-3.11,11.4-9.32,28.75-9.32,28.75l10.36,3.63,7.51-5.7,8.81-15.02.26-5.18-.52-4.66-4.06-11.74Z"/>
          <path class="cls-6" d="m101.34,116.45c-8.22,1.45-18.62,5.78-17.02,15.09s1.93,7.38,2.57,13.16c.64,5.78.59,9.6,5.38,12.74,3.08,2.02,7.32.8,7.68.86,1.54.27,1.39,6.94,1.39,6.94l13.8,1.61s-.64-7.71-.96-12.52c-.14-2.15.32-1.61,2.25-5.14,0,0,6.74-3.85,4.17-9.31-2.57-5.46-6.74-1.61-7.06,1.93v-23.76s-6.74-2.57-12.2-1.61Z"/>
          <path class="cls-10" d="m104.13,156.58c-4.36.69-9.46,1.15-12.57-1.99-1.95-1.97-2.55-4.86-3.06-7.58-.88-4.7-1.77-9.44-1.63-14.22.14-4.54,1.29-9.18,3.99-12.82-4.37,2.46-7.48,6.18-6.55,11.57,1.61,9.31,1.93,7.38,2.57,13.16s.59,9.6,5.38,12.74c3.08,2.02,7.32.8,7.68.86,1.1.19,1.33,3.63,1.38,5.6.36-2.61,1.32-5.14,2.8-7.33Z"/>
          <path class="cls-4" d="m99,165.82s-.52-2.42-.35-3.97c0,0,7.6-1.55,16.75-1.04l.86,3.63s12.95-.52,13.3,9.15c.35,9.67-3.11,22.97-1.73,31.77,1.38,8.81,4.66,15.37,4.66,15.37,0,0-27.28,4.84-36.78.69,0,0-1.21-19.17-2.24-21.59s-6.73-8.12-4.66-12.43c2.07-4.32,3.97-6.73,3.97-6.73,0,0-5.7-10.36-1.73-12.78,3.97-2.42,7.94-2.07,7.94-2.07Z"/>
          <path class="cls-19" d="m92.2,189.47c-.92-3.45-1.79-7.38.1-10.41.91-1.46,2.35-2.5,3.59-3.69,1.24-1.2,2.35-2.74,2.28-4.46,1.08,1.7.28,4-1,5.55-1.28,1.55-3,2.73-4.09,4.43-1.83,2.85-1.53,6.55-.78,9.86"/>
          <g>
            <path class="cls-19" d="m99,165.82s-9.93-1.47-13.04,9.93c-.2.73-.41,1.5-.64,2.27.2-.46.41-.91.63-1.36,2.8-5.52,4.8-10.5,14.44-10.1-.24-1.63-.48-3.26-.72-4.9-.66.11-1.02.18-1.02.18-.17,1.55.35,3.97.35,3.97Z"/>
            <path class="cls-19" d="m81.89,194.66c.32-3.17,3.45-15.27,4.07-18.39-.68,2.15-4.18,13.19-4.86,15.23.15,1.07.4,2.12.78,3.16Z"/>
          </g>
          <path class="cls-4" d="m120.5,194.66c-2.83-9.43-8.29-23.83.52-27.28s12.09,8.46,14.51,19.86c2.42,11.4,5.87,35.4-6.04,33.5-11.91-1.9-20.2-5.01-20.2-5.01,0,0-1.55,2.24-3.63,1.04-2.07-1.21-6.73-4.32-5.7-5.35,0,0-3.28-1.73-2.24-3.28,0,0-2.24-1.55-1.21-2.76,1.04-1.21,1.73-.86,1.73-.86,0,0-2.94-1.04-1.38-2.76,1.55-1.73,6.04.17,6.04.17l-.52-3.45s1.9-.35,3.45,1.9c1.55,2.24,2.59,3.8,2.76,5.35,0,0,11.74-1.04,15.37-.35,0,0-1.9-5.53-3.45-10.71Z"/>
          <path class="cls-20" d="m86.97,145.76c-.03.72-1.46-.2-1.92-.75.23-.41.46-.82.69-1.23-.51-.26-1.02-.51-1.53-.77.02-.44.05-.88.07-1.33-1.14.11-2.33-.49-2.91-1.48.48-.48,1.1-.81,1.77-.93-1.29-.77-2.68-1.66-3.17-3.09s.65-3.39,2.12-3.05c-1.99-1.68-1.61-5.37.69-6.6-1.22-.53-1.1-2.69.18-3.07.02-.9.35-1.78.93-2.47.45-.03.91-.05,1.36-.08.02-.39.05-.79.07-1.18.6-.1,1.2-.2,1.79-.31.06-2.25,2.79-3.95,4.84-3.02.02-.73,1.26-.96,1.54-.28-.24-1.4,1.03-3.16,2.26-3.89,1.23-.72,2.9-.6,4.01.29.28-.65.81-1.19,1.45-1.5.36.67.73,1.35,1.1,2.02.48-1.21,1.73-2.07,3.03-2.11,1.3-.04,2.59.76,3.14,1.94.54-.92,2.05-1.02,2.72-.18.14-.76.88-1.36,1.65-1.34s1.48.67,1.57,1.43c.45-.47,1.29-.5,1.76-.04.47.45.49,1.29.03,1.76.69.02,1.04,1.1.49,1.52.2-1.6,2.33-2.59,3.68-1.7.07.7-.16,1.42-.61,1.96.37-.46,1.18.09,1.14.68-.05.59-.56,1.01-1.02,1.36.46-.38,1.6.04,1.95.54.34.49.49,1.11.88,1.57.46.53,1.18.77,1.69,1.25.51.48.69,1.48.06,1.79-.3.6.26,1.53.7,2.04s.99.96,1.2,1.59c.22.63-.15,1.52-.82,1.5,1.06.36,1.33,2.03.44,2.72.8.4,1.23,1.22,1.26,2.11.03.89-.46,1.78-1.23,2.23.7.28,1.19,1.02,1.17,1.77-.02.75-.54,1.47-1.25,1.72,1.12.84.8,2.57-.31,3.43.95.86.44,2.74-.81,3.01-.11.69-.21,1.39-.32,2.08-.69.11-1.38.23-2.07.34.05.98-.84,1.72-1.65,2.28-.74.52-2.13.68-2.87,1.2-.85.79-2.12.59-3.28.6,0,0,1.12-2.07,1.8-2.89,0,0,4.49-2.49,4.01-8.27-.48-5.78-5.86-4.01-6.9.88.21.45-.3,1.15-.69,1.45-.9-.41-1.45-1.45-1.29-2.42-.48.39-1.25.33-1.67-.12-.42-.45-.41-1.23,0-1.67-.78.32-1.8-.76-1.81-1.6-.02-.85.55-1.59,1.18-2.16-1.38.51-3.09-.08-3.86-1.34-.77-1.26-.51-3.05.58-4.05-.35.26-.74.5-1.18.53-.44.02-.92-.26-.96-.69-.05-.43.55-.82.86-.51-.77,0-1.91-.73-2.15-1.46-.24-.74.05-1.61.68-2.06-.83.76-2.27.7-3.03-.12s-.72-2.26.09-3.03c-.78.65-2.04.61-2.78-.08s-.85-1.95-.25-2.77c-.15.71-1.18.78-1.9.7s-1.32-.77-1.3-1.49c.31.58-.03,1.4-.66,1.58s-1.36-.33-1.41-.99c-.28.39-9.2,2.76-5.38,21.28.31,1.51.45,2.91.36,4.98Z"/>
          <path class="cls-20" d="m119.95,117.11c-.79-.43-1.01-1.62-.44-2.3s1.78-.68,2.34.02c-.64-.14-.83-1.16-.28-1.53.55-.36,1.41.21,1.29.86-.49-.94-1-1.93-1.02-3-.02-1.07.6-2.22,1.64-2.45.88-.2,1.81.35,2.29,1.12s.57,1.72.53,2.62c.02-.61.63-1.13,1.24-1.05.61.08,1.07.74.93,1.33.44-.35,1.12-.37,1.57-.03.45.33.65.98.44,1.51.53-.66,1.61-.79,2.28-.27.67.52.82,1.6.31,2.28.68.1,1.23.74,1.23,1.43,0,.69-.57,1.32-1.25,1.41.82.44.51,1.96-.41,2.05.29.59.58,1.28.31,1.88-.26.6-1.37.69-1.46.04.8.39,1.03,1.61.43,2.27-.6.66-1.84.54-2.3-.23.05.62-.45,1.23-1.07,1.3s-1.24-.42-1.32-1.03c.29.89-.96,1.67-1.83,1.31-.87-.35-1.31-1.32-1.55-2.23-.52.49-1.4.52-1.96.09-.56-.44-.74-1.3-.4-1.92-1.05-.31-1.66-1.64-1.2-2.63-.82-.59-1.29-1.62-1.21-2.62"/>
          <path class="cls-7" d="m58.08,182.05s7.94-5.87,18.99,10.02c0,0,9.57-12.17,21.43-8.11l11.29,35.89s-2.6-5.5-11-2.6c-8.39,2.89-14.76,6.95-14.76,6.95,0,0-1.78-3.11-4.89-6.56-2.07-2.3-5.53-1.73-5.53-1.73l-15.54-33.85Z"/>
          <path class="cls-9" d="m53.93,262.87s6.22,2.07,13.81,10.71c0,0-2.07,5.53-5.18,6.56l-14.16-8.63s2.07-7.25,5.53-8.63Z"/>
          <path class="cls-10" d="m107.26,198.66s-1.44-2.46-4.31-2.05c-2.87.41-3.69,1.64-5.13,2.05-1.44.41-1.44,2.05,0,2.05s3.49-1.23,4.31-1.03l1.23,1.03s-2.05,0-4.51,1.03c-2.46,1.03-3.49,1.85-2.26,2.67,1.23.82,2.26.41,4.31-.21,2.05-.62,3.69.21,3.69.21,0,0-1.03,0-2.87.62-1.85.62-3.08.62-2.67,1.85.41,1.23,4.31.41,5.33.21,0,0-3.28.41-2.67,2.26.62,1.85,3.9.62,3.9.62l.41,1.64s2.67,3.69,6.36,1.44c3.86-2.36,0-7.39-5.13-14.36Z"/>
          <path class="cls-10" d="m63.69,199.58s.52-2.33,2.07-3.11c1.55-.78,2.33-.26,4.14-.26s1.55,1.81.52,2.33c-1.04.52-2.85,0-3.37.78l-.52.78s2.85-.52,4.4-.52,1.81,1.04.78,2.07c-1.04,1.04-3.11,1.55-3.11,1.55,0,0,.78.78,1.3.78s1.81-1.04,2.33-.78c.52.26,1.04,1.04.26,2.33-.78,1.3-1.81,1.55-1.81,1.55,0,0,2.07-1.55,2.59,0,.52,1.55-1.3,3.11-1.3,3.11l.78,1.3s-2.07,2.33-3.11.52c-1.04-1.81-2.07-1.81-2.85-3.37-.78-1.55-1.81-.78-2.33-2.85-.52-2.07-1.55-5.18-.78-6.22Z"/>
          <path class="cls-20" d="m91.64,141.26c.21,1.17-.15,2.22-.81,2.34-.66.12-1.36-.74-1.57-1.91-.21-1.17.15-2.22.81-2.34.66-.12,1.36.74,1.57,1.91Z"/>
          <path class="cls-20" d="m103.47,140.48c.21,1.17-.15,2.22-.81,2.34-.66.12-1.36-.74-1.57-1.91-.21-1.17.15-2.22.81-2.34.66-.12,1.36.74,1.57,1.91Z"/>
          <path class="cls-20" d="m98.14,130.77c.73-2.2,2.94-1.9,4.32-.69,1.38,1.21.35.35-1.38.69-1.73.35-3.28,1.04-2.94,0Z"/>
          <path class="cls-20" d="m87.26,131.63c.61-.92,1.73-2.07,2.94-1.38,1.21.69,1.73,1.73.86,2.07-.86.35-1.04-1.21-2.07-.69-1.04.52-2.07.52-1.73,0Z"/>
          <path class="cls-20" d="m93.3,152.18c1.7,1.21,4.66,1.21,7.08-.17s2.94-2.42,1.9-2.24c-1.04.17-2.07,2.24-5.01,2.24s-5.18-.69-3.97.17Z"/>
          <path class="cls-20" d="m93.99,146.48c-.09-1.38.86-5.87,1.55-5.87s-1.44,7.63-1.55,5.87Z"/>
          <path class="cls-19" d="m116.79,171s-2.76,3.11-1.38,9.32c1.38,6.22,6.22,19.69,6.22,22.45,0,0-3.8,2.76-5.87.69s-5.87-2.07-5.87-2.07v2.07s3.45,0,5.87,1.38c2.42,1.38,6.73,2.42,8.2.52,0,0,2.16-.17,4.23,4.66,0,0,1.73-4.14-4.14-7.94,0,0-6.56-16.58-6.91-22.79-.35-6.22,3.8-10.02,3.8-10.02,0,0-2.42-1.04-4.14,1.73Z"/>
          <path class="cls-8" d="m77.81,281.06c9.1-1.45,15.38-1.33,24.44.34,1.77.33,4.06,1.6,3.36,3.27-.42,1.01-1.7,1.27-2.79,1.4-3.06.35-6.13.7-9.19,1.05,2.59-1.07,5.19-2.13,7.78-3.2-9.16-2.52-14.92-3.4-24.39-2.6"/>
          <path class="cls-8" d="m104.53,277.89c3.06.04,4.32.45,6.69,2.39-1.53.21-1.29,1.13-2.82,1.34.69-1.34-.85-3.17-2.29-2.72"/>
          <ellipse class="cls-3" cx="152.01" cy="297.75" rx="45.59" ry="13.47"/>
          <ellipse class="cls-15" cx="148.91" cy="294.64" rx="45.59" ry="13.47"/>
          <path class="cls-14" d="m106.08,296.37c0-7.44,20.41-13.47,45.59-13.47,17.06,0,31.94,2.77,39.75,6.87-6.61-5.03-23.15-8.6-42.51-8.6-25.18,0-45.59,6.03-45.59,13.47,0,2.4,2.12,4.65,5.84,6.6-1.98-1.51-3.07-3.15-3.07-4.87Z"/>
          <path class="cls-3" d="m153.18,293.92c5.16,3.31,10.33,6.62,15.49,9.92"/>
          <path class="cls-3" d="m144.74,295.12c-5.35,2.24-10.71,4.49-16.06,6.73"/>
          <path class="cls-3" d="m129.73,290.06c3.28.3,6.57.6,9.85.91"/>
          <path class="cls-3" d="m158.23,290.98c5.01-.34,10.02-.68,15.02-1.03"/>
        </g>
      </g>
    </g>
  </g>
</svg>