<?xml version="1.0" encoding="UTF-8"?>
<svg id="Layer_1" data-name="Layer 1" xmlns="http://www.w3.org/2000/svg" viewBox="0 0 188.66 199.22">
  <defs>
    <style>
      .cls-1 {
        fill: #f6dadf;
      }

      .cls-2 {
        fill: #e4bbc1;
      }

      .cls-3 {
        fill: #fff;
      }

      .cls-4 {
        fill: #e47cb2;
      }

      .cls-5 {
        fill: #7d7eaa;
      }

      .cls-6 {
        fill: #ad95c7;
      }

      .cls-7 {
        fill: #a55b96;
      }

      .cls-8 {
        fill: #cc7e9d;
      }

      .cls-9 {
        fill: #daa2ab;
      }

      .cls-10 {
        fill: #25215f;
      }

      .cls-11 {
        fill: #6dc5e8;
      }

      .cls-12 {
        fill: #894c53;
      }

      .cls-13 {
        fill: #585295;
      }

      .cls-14 {
        fill: #52322e;
      }
    </style>
  </defs>
  <rect class="cls-6" x="5.47" y="137.74" width="177.37" height="61.48"/>
  <rect class="cls-6" x="5.47" y="137.74" width="177.37" height="61.48"/>
  <path class="cls-4" d="m35.2,181.41l13.61-33.59s-7.05,0-12.09-6.55c-5.04-6.55-3.53-12.09.5-12.09s17.64.5,17.64.5c0,0,10.85-8.39,13.94-12.77,5.71-8.06,7.56-10.75,7.05-15.79-.5-5.04-2.69-8.4-2.69-8.4,0,0-1.18,8.73-13.77,13.27-12.6,4.54-17.13,5.04-17.13,5.04,0,0,20.66-15.62,21.16-23.68.5-8.06,1.51-21.16,2.02-24.19.5-3.02,12.6-6.55,12.6-6.55l9.57,15.62,7.56,19.65,1.01,16.12-5.04,30.23-10.58,21.33-9.57,8.4-35.78,13.44Z"/>
  <polygon class="cls-11" points="53.68 143.45 35.2 181.41 158.82 181.41 135.98 140.76 53.68 143.45"/>
  <path class="cls-7" d="m68.46,151.85l-12.09-1.51s-.5,3.02-6.05,9.07c-5.54,6.05-9.07,8.06-13.1,8.57-4.03.5-33.26,2.52-33.26,2.52l2.02-6.55,7.56-7.05,33.26-13.1,7.56-5.04s20.66,7.05,14.11,13.1Z"/>
  <path class="cls-7" d="m118.85,151.85s10.58-2.52,12.09-2.02c1.51.5,9.57,3.02,12.6,4.54,3.02,1.51,23.18,10.08,28.72,10.08s12.09-4.03,12.09-4.03l-1.01-11.59s-29.23-8.06-35.78-9.07c-6.55-1.01-29.23,7.05-28.72,12.09Z"/>
  <path class="cls-5" d="m67.45,55.94s5.21-4.2,12.93-2.86l14.45,2.69s9.41,0,10.41-.84c1.01-.84,1.51-2.02,1.51-2.02,0,0,8.06-.5,14.61,2.52,0,0,1.51,19.15-.17,24.69-1.68,5.54-9.07,9.07-10.58,17.97-1.51,8.9,5.71,20.32,5.71,20.32h-43.17s8.73-12.77,5.71-20.83c-3.02-8.06-12.43-13.44-13.27-23.35s1.85-18.31,1.85-18.31Z"/>
  <path class="cls-9" d="m66.62,96.41s2.94-1.97,3-2.99c.52-10.57,4.18-20.68,5.28-27.65,1.32-8.35-1.97-10.96-3.23-11.11s-10.44-2.52-12.9,13.33c-1.46,9.4-1.85,18.96-3.51,24.85,4.46,1.25,6.96,2.18,11.38,3.57Z"/>
  <path class="cls-5" d="m74.44,56.61s0,5.79-2.77,11.34c-2.77,5.54-6.05,12.6-.25,18.9s9.83,4.03,9.83,4.03l3.02-4.54-3.78-16.12s-1.26.76-1.26-3.53-4.79-10.08-4.79-10.08Z"/>
  <path class="cls-14" d="m75.68,32.26s-.5,19.65,2.35,24.36c0,0-2.35-2.02-3.53-7.39,0,0-.17,4.7,1.01,6.55,0,0-4.87-3.7-3.36-23.52l1.68-2.69,1.51,1.01.34,1.68Z"/>
  <path class="cls-12" d="m101.21,41.66s-2.86,9.41,1.01,14.45h-20.32s5.04-7.22.67-15.79l18.64,1.34Z"/>
  <path class="cls-9" d="m98.69,42.5s-2.18,4.7-.67,8.9,7.89,1.85,10.08,1.01c2.18-.84,1.85.5,1.85.5,0,0,.34,18.98-15.96,18.98s-15.79-17.64-15.79-18.31,1.01-.84,2.18-.5c1.18.34,4.03,1.18,6.05-1.01s0-9.07,0-9.07l12.26-.5Z"/>
  <path class="cls-2" d="m108.62,32.93h-31.09v4.2c1.91,3.21,4.82,5.86,9.2,7.05.47,2.06,1.2,6.28-.3,7.9-2.02,2.18-4.87,1.34-6.05,1.01-1.18-.34-2.18-.17-2.18.5s-.5,18.31,15.79,18.31,15.96-18.98,15.96-18.98c0,0,.34-1.34-1.85-.5-2.18.84-8.57,3.19-10.08-1.01-1-2.78-.38-5.78.15-7.49,5.39-1.83,8.64-6.14,10.45-10.98Z"/>
  <path class="cls-12" d="m108.77,33.1s1.01,25.53-7.73,25.53c0,0,5.37.5,6.55-3.86,0,0,1.34,8.73-3.19,9.41,0,0,7.73-1.01,8.06-14.11s.67-20.32.67-20.32l-4.37,3.36Z"/>
  <path class="cls-9" d="m74.34,16.47s-4.2,28.39,17.8,28.39c17.64,0,19.72-20.49,17.8-28.72-1.22-5.22-2.86-11.25-17.3-11.25s-17.64,7.73-18.31,11.59Z"/>
  <path class="cls-9" d="m83.24,8.41h16.12s-2.69-8.9-7.73-3.86c0,0-5.54-3.36-7.56.34-2.02,3.7-.84,3.53-.84,3.53Z"/>
  <path class="cls-9" d="m108.43,26.55s2.69-5.54,6.72-3.53c4.03,2.02-2.18,14.45-7.56,10.08-5.37-4.37.84-6.55.84-6.55Z"/>
  <path class="cls-9" d="m75.79,26.55s-2.69-5.54-6.72-3.53c-4.03,2.02,2.18,14.45,7.56,10.08,5.37-4.37-.84-6.55-.84-6.55Z"/>
  <path class="cls-14" d="m91.64,6.56s-1.85-6.21-8.4-4.54c-6.55,1.68-7.22,4.54-7.22,4.54,0,0-6.05,4.37-6.21,12.93-.17,8.57,3.86,12.77,5.88,13.61l-.84-10.92s2.18-2.02,5.71-7.89c3.53-5.88,4.54-9.91,7.56-9.57,3.02.34,3.53,1.85,3.53,1.85Z"/>
  <path class="cls-14" d="m91.64,6.56s.5-5.54,3.7-6.21c3.19-.67,5.04,2.18,5.04,2.18,0,0,10.41,2.52,11.76,10.75,1.34,8.23.84,9.07.84,9.07,0,0-2.52,1.51-2.86,3.86-.34,2.35-.67,4.87-.67,4.87,0,0-1.68-4.37-1.68-11.09s-.67-5.54-1.85-5.88c-1.18-.34-3.7,0-6.05-2.86-2.35-2.86-3.02-7.73-5.37-6.89-2.35.84-2.86,2.18-2.86,2.18Z"/>
  <path class="cls-10" d="m73.16,118.42s-12.35,5.38-24.1-.34c0,0,21.42,24.36,29.81,25.03,8.4.67,10.08,2.02,15.12,2.02s6.38.34,13.77-.67c7.39-1.01,30.57-24.52,30.57-24.52,0,0-10.08,5.71-22-1.51h-43.17Z"/>
  <path class="cls-3" d="m114.14,118.26s8.06,8.73,15.45,9.07l2.35-2.69s-5.71,1.68-17.8-6.38Z"/>
  <path class="cls-3" d="m56.03,123.63s13.1-1.68,17.13-5.21c0,0-5.71,5.21-15.45,6.89l-1.68-1.68Z"/>
  <path class="cls-9" d="m87.94,143.12s4.03-4.03,8.06-2.69c4.03,1.34,2.69,3.7,7.73,2.69,5.04-1.01,13.44-12.43,26.87-20.83,13.44-8.4,18.48-7.39,22.17-5.71s5.37,5.38,3.02,10.08c-2.35,4.7-8.4,12.77-15.12,15.45s-37.96,13.44-43,14.78c-5.04,1.34-12.43,2.02-17.13,2.69-4.7.67-10.75,3.36-12.09,3.02-1.34-.34-1.68-2.35-1.68-2.35,0,0-2.69,0-2.35-1.34l.34-1.34s-4.03-1.34-3.02-3.02c1.01-1.68,1.01-3.02,5.38-4.7,4.37-1.68,11.42-2.35,14.78-4.03,3.36-1.68,1.34-.67,6.05-2.69Z"/>
  <path class="cls-8" d="m108.14,140.64c-1.69,1.33-3.16,2.23-4.41,2.48-3.04.61-3.76,0-4.73-.88-1.66,1.3-2.83,2.56-2.83,2.56,2.11,6.33,10.23,8.07,12.81,8.46,2.69-.9,5.63-1.9,8.62-2.93-2.09-2.49-6.36-7.4-9.46-9.69Z"/>
  <path class="cls-2" d="m155.8,126.65c1.6-3.2,1.33-5.93-.17-7.88-.55.51-.83,1.37-1.05,2.13-1.66,5.76-8.37,11.56-12.89,15.49-6.8,5.9-12.39,8.01-21.04,10.52-17.63,5.1-35.25,10.21-52.88,15.31.19.17.42.31.69.37,1.34.34,7.39-2.35,12.09-3.02,4.7-.67,12.09-1.34,17.13-2.69,5.04-1.34,36.28-12.09,43-14.78,6.72-2.69,12.77-10.75,15.12-15.45Z"/>
  <path class="cls-8" d="m80.88,146.24c-3.62,1.37-9.8,2.07-13.76,3.6-.34.13-.64.26-.93.39,2.87,1.48,13.35,6.8,18.98,8.76,4.15-.52,8.93-1.13,12.52-2.09.41-.11.99-.28,1.72-.51l1.05-2.52-5.04-3.78-14.54-3.85Z"/>
  <path class="cls-9" d="m100.29,143.12s-4.03-4.03-8.06-2.69c-4.03,1.34-2.69,3.7-7.73,2.69-5.04-1.01-13.44-12.43-26.87-20.83-13.44-8.4-18.48-7.39-22.17-5.71s-5.37,5.38-3.02,10.08c2.35,4.7,8.4,12.77,15.12,15.45,6.72,2.69,37.96,13.44,43,14.78,5.04,1.34,12.43,2.02,17.13,2.69,4.7.67,10.75,3.36,12.09,3.02,1.34-.34,1.68-2.35,1.68-2.35,0,0,2.69,0,2.35-1.34l-.34-1.34s4.03-1.34,3.02-3.02-1.01-3.02-5.37-4.7c-4.37-1.68-11.42-2.35-14.78-4.03-3.36-1.68-1.34-.67-6.05-2.69Z"/>
  <g>
    <path class="cls-9" d="m58.15,88.75c-2.72,1.5-4.01,2.73-6.12,5.49-2.1,2.76-7.11,8.16-8.35,8.56-1.24.4-5.52-.21-7.46.03-1.95.24-2.82,1.2-3.98,1.04-1.15-.16-3.83-1.04-5.85-1.11-2.02-.06-3.87.59-3.2,2.37s4.32,1.25,5.76,1.67c1.44.42,2.3,1.19,2.82,1.93.52.74,1.45,2.25,1.45,2.25,0,0,5.35,3.17,8.76,1.61,3.41-1.56,10.84-3.67,17.48-8.18,6.76-4.6,11.84-9.64,9.45-13.94-2.4-4.29-7.31-3.62-10.75-1.73Z"/>
    <path class="cls-8" d="m24.26,114.24s.59-3.7,2.95-3.61c2.36.09,4.49.56,6.44-1.68,1.95-2.24,1.65-2.82,4.36-2.65s5.83-.08,5.83-.08c0,0-3.01,5.41-5.8,7.68-2.78,2.27-1.79,1.56-5.1,1.69-3.31.13-8.4.52-8.7-1.35Z"/>
    <path class="cls-9" d="m44.71,109.69c-.16.3-3.58,5.38-4.87,5.57-1.29.2-4.58-1.4-5.66-1.69s-2.66-4.02-3.1-4.88c-.44-.87-1.73-2.51-.76-3.06.98-.55,2.05.17,2.69,1.42.64,1.25,2.38,3.76,2.82,3.76.45,0,2.86-2.4,4.56-1.83,0,0,.16-2.95,2.16-2.99,2-.04,3.51,1.12,2.14,3.71Z"/>
    <path class="cls-9" d="m40.2,113.99s-1.26,2.56-2.42,2.84c-1.16.27-7.25-.45-8.01-.81-.76-.36-2.44-5.36-2.74-6.59s-.1-.84.1-1.86.19-.58.25-1.25c.06-.66.05-2.5,1.31-1.93,1.26.57,1.29,2.5,1.48,4.19.19,1.68,1.72,3.81,2.06,4.27.34.46,2.8,1.39,3.35,1.37.55-.02,3.59-3.98,4.57-2.7.98,1.28.53,1.71.05,2.47Z"/>
    <path class="cls-9" d="m27.96,110.5c-.08-.31-1.63-2.53-1.91-3.22-.28-.69-1.58-4.16-2.67-3.58s-.91,1.73-.39,4.3c.52,2.58,1.9,4.52,2.28,5.62.38,1.1.2,1.25,2.13,1.87,1.94.62,5.32,1.66,5.74,1.13.43-.53-.37-1.96-1.78-2.71-1.41-.75-3.41-3.41-3.41-3.41Z"/>
    <path class="cls-9" d="m26.28,113.6s-2.11-1.34-2.66-2.18c-.54-.84-1.4-3.88-2.75-3.46-1.34.42-.84,2.47.52,5.28,1.36,2.81,1.82,4.21,3.05,4.68s2.34-.01,4.07-.2c1.74-.19,5.23-.04,6.13-.9.9-.86-8.37-3.21-8.37-3.21Z"/>
    <path class="cls-8" d="m24.61,112.27s.8,1.43,1.65,2.63,1.17,1.13,2.61,1.54c0,0-2.95-.44-3.7-1.23-.75-.79-1.55-3.79-1.55-3.79l.99.85Z"/>
    <path class="cls-8" d="m26.96,108.69s.92,2.37,1.54,3.53c.62,1.15,3.31,3,3.31,3,0,0-2.96-.71-3.79-2.24-.82-1.53-1.06-4.29-1.06-4.29Z"/>
    <path class="cls-8" d="m33.97,108.66s-1.26-3.05-2.21-3.53c-.95-.48-1.87.76-1.85,1.08,0,0-1.34-1.58-1.88-1.07,0,0,.3-1.04,1.05-.73.75.31.95.69.95.69,0,0,.23-1.08,2.15-.78,1.91.31,3.11,3.8,3.11,3.8l-1.32.53Z"/>
  </g>
  <path class="cls-9" d="m121.28,96.41s-2.94-1.97-3-2.99c-.52-10.57-4.18-20.68-5.28-27.65-1.32-8.35,1.97-10.96,3.23-11.11,1.26-.15,10.44-2.52,12.9,13.33,1.46,9.4,1.85,18.96,3.51,24.85-4.46,1.25-6.96,2.18-11.38,3.57Z"/>
  <g>
    <path class="cls-9" d="m129.75,88.75c2.72,1.5,4.01,2.73,6.12,5.49,2.1,2.76,7.11,8.16,8.35,8.56,1.24.4,5.52-.21,7.46.03,1.95.24,2.82,1.2,3.98,1.04s3.83-1.04,5.85-1.11c2.02-.06,3.87.59,3.2,2.37-.66,1.79-4.32,1.25-5.76,1.67s-2.3,1.19-2.82,1.93c-.52.74-1.45,2.25-1.45,2.25,0,0-5.35,3.17-8.76,1.61-3.41-1.56-10.84-3.67-17.48-8.18-6.76-4.6-11.84-9.64-9.45-13.94,2.4-4.29,7.31-3.62,10.75-1.73Z"/>
    <path class="cls-8" d="m163.64,114.24s-.59-3.7-2.95-3.61c-2.36.09-4.49.56-6.44-1.68-1.95-2.24-1.65-2.82-4.36-2.65s-5.83-.08-5.83-.08c0,0,3.01,5.41,5.8,7.68,2.78,2.27,1.79,1.56,5.1,1.69,3.31.13,8.4.52,8.7-1.35Z"/>
    <path class="cls-9" d="m143.19,109.69c.16.3,3.58,5.38,4.87,5.57s4.58-1.4,5.66-1.69,2.66-4.02,3.1-4.88c.44-.87,1.73-2.51.76-3.06-.98-.55-2.05.17-2.69,1.42-.64,1.25-2.38,3.76-2.82,3.76-.45,0-2.86-2.4-4.56-1.83,0,0-.16-2.95-2.16-2.99-2-.04-3.51,1.12-2.14,3.71Z"/>
    <path class="cls-9" d="m147.7,113.99s1.26,2.56,2.42,2.84c1.16.27,7.25-.45,8.01-.81.76-.36,2.44-5.36,2.74-6.59.3-1.22.1-.84-.1-1.86-.19-1.02-.19-.58-.25-1.25-.06-.66-.05-2.5-1.31-1.93-1.26.57-1.29,2.5-1.48,4.19s-1.72,3.81-2.06,4.27c-.34.46-2.8,1.39-3.35,1.37-.55-.02-3.59-3.98-4.57-2.7-.98,1.28-.53,1.71-.05,2.47Z"/>
    <path class="cls-9" d="m159.94,110.5c.08-.31,1.63-2.53,1.91-3.22.28-.69,1.58-4.16,2.67-3.58s.91,1.73.39,4.3c-.52,2.58-1.9,4.52-2.28,5.62-.38,1.1-.2,1.25-2.13,1.87-1.94.62-5.32,1.66-5.74,1.13-.43-.53.37-1.96,1.78-2.71,1.41-.75,3.41-3.41,3.41-3.41Z"/>
    <path class="cls-9" d="m161.63,113.6s2.11-1.34,2.66-2.18c.54-.84,1.4-3.88,2.75-3.46,1.34.42.84,2.47-.52,5.28-1.36,2.81-1.82,4.21-3.05,4.68-1.23.47-2.34-.01-4.07-.2-1.74-.19-5.23-.04-6.13-.9-.9-.86,8.37-3.21,8.37-3.21Z"/>
    <path class="cls-8" d="m163.29,112.27s-.8,1.43-1.65,2.63c-.85,1.2-1.17,1.13-2.61,1.54,0,0,2.95-.44,3.7-1.23.75-.79,1.55-3.79,1.55-3.79l-.99.85Z"/>
    <path class="cls-8" d="m160.94,108.69s-.92,2.37-1.54,3.53c-.62,1.15-3.3,3-3.3,3,0,0,2.96-.71,3.79-2.24.82-1.53,1.06-4.29,1.06-4.29Z"/>
    <path class="cls-8" d="m153.93,108.66s1.26-3.05,2.21-3.53c.95-.48,1.87.76,1.85,1.08,0,0,1.34-1.58,1.88-1.07,0,0-.3-1.04-1.05-.73-.75.31-.95.69-.95.69,0,0-.23-1.08-2.15-.78-1.91.31-3.11,3.8-3.11,3.8l1.32.53Z"/>
  </g>
  <path class="cls-5" d="m113.56,56.61s0,5.79,2.77,11.34c2.77,5.54,6.05,12.6.25,18.9s-9.83,4.03-9.83,4.03l-3.02-4.54,3.78-16.12s1.26.76,1.26-3.53,4.79-10.08,4.79-10.08Z"/>
  <path class="cls-14" d="m91.26,35.7c-1.64,0-3.28-.88-4.28-2.27-1.01-1.39-1.89-.88-1.64-.25.25.63,2.65,3.78,6.05,3.78s6.05-3.28,5.67-3.91c-.38-.63-.38,0-1.64.88-1.26.88-1.76,1.76-4.16,1.76Z"/>
  <path class="cls-14" d="m96.04,23.48c0,1.02.13,3.78,2.39,3.15,2.27-.63,2.14-4.66,1.51-4.41-.63.25-.88,4.28-2.27,3.53-1.39-.76-.25-3.65-1.01-3.78-.76-.13-.63.63-.63,1.51Z"/>
  <path class="cls-14" d="m86.36,23.48c0,1.02-.13,3.78-2.39,3.15-2.27-.63-2.14-4.66-1.51-4.41.63.25.88,4.28,2.27,3.53,1.39-.76.25-3.65,1.01-3.78.76-.13.63.63.63,1.51Z"/>
  <path class="cls-14" d="m90.6,28.9c-.24-2.31.63-6.88,1.03-6.05.39.83-.82,8.06-1.03,6.05Z"/>
  <path class="cls-14" d="m95.29,14.55c.54-.93,2.36-2.51,4.65-.98,2.29,1.53,4.78,3.56,3.42,3.31-1.36-.25-4.05-2.76-5.38-2.51-1.33.26-3.29,1.23-2.68.18Z"/>
  <path class="cls-14" d="m88.35,14.55c-.54-.93-2.36-2.51-4.65-.98s-4.78,3.56-3.42,3.31c1.36-.25,4.05-2.76,5.38-2.51,1.33.26,3.29,1.23,2.68.18Z"/>
  <path class="cls-14" d="m76.01,6.56s3.02-5.71,8.23-5.88c5.21-.17,6.55,2.18,6.55,2.18,0,0,4.7-6.55,10.75.17l-3.02,2.18s-4.54-5.88-6.89,1.34c0,0-3.36-6.89-6.38-2.86-3.02,4.03-4.87,5.21-4.87,5.21l-4.37-2.35Z"/>
  <path class="cls-3" d="m137.99,143.28s14.11-17.64,19.15-20.66c5.04-3.02,25.7,1.01,28.72,0v32.75s-8.57,6.05-15.62,5.04c-7.05-1.01-29.23-10.58-32.75-10.58s-3.53-1.51.5-6.55Z"/>
  <path class="cls-1" d="m188.39,130.69c-4.03-1.01-12.6,1.01-16.12,6.55-3.53,5.54-.5-6.05,3.53-7.05,4.03-1.01,10.08-1.51,10.08-1.51l-12.09-3.02s8.06-1.01,12.09,1.01c4.03,2.02,2.52,4.03,2.52,4.03Z"/>
  <path class="cls-3" d="m2.44,133.21c5.04-3.02,14.11-6.55,23.18-3.53,9.07,3.02,21.67,14.61,26.71,17.13,5.04,2.52-6.55,11.09-14.11,16.12-7.56,5.04-34.27,4.03-35.27,5.54l-.5-35.27Z"/>
  <path class="cls-1" d="m.6,142.11s10.41-7.73,15.45-7.05c5.04.67,10.75,2.35,9.74,3.02-1.01.67-9.41-1.68-11.76-.67-2.35,1.01-12.43,6.05-12.43,6.05,0,0,11.09-2.35,13.77-1.68,2.69.67,7.39,3.36,6.72,4.03-.67.67-6.72-1.68-8.73-1.68s-11.42,2.69-12.77,2.02c-1.34-.67,0-4.03,0-4.03Z"/>
  <g>
    <path class="cls-2" d="m119.77,162.6c.96-.24,1.41-1.34,1.58-1.94-31.73-3.26-36.76-7.17-54.65-12.67-7.86-2.41-15.79-5.15-22.38-10.08-6.16-4.61-11.05-11.49-11.77-19.09-1.46,1.95-1.72,4.66-.13,7.83,2.35,4.7,8.4,12.77,15.12,15.45,6.72,2.69,37.96,13.44,43,14.78,5.04,1.34,12.43,2.02,17.13,2.69,4.7.67,10.75,3.36,12.09,3.02Z"/>
    <path class="cls-2" d="m34.43,118.49l-.99-.62c-.15.13-.3.27-.43.42.48,0,.96.07,1.42.2Z"/>
    <path class="cls-2" d="m123.83,159.15c-.95.28-1.97.34-2.95.14.22.32.45.64.67.96.45-.01,2.25-.14,2.28-1.1Z"/>
    <path class="cls-2" d="m123.33,155.46c.44.54.87,1.07,1.31,1.61.79-.38,1.72-.97,1.96-1.66-1.05-.39-2.24-.4-3.27.05Z"/>
  </g>
  <path class="cls-2" d="m129.15,67.99c-1.38-8.9-4.88-12.05-7.91-13.08-.42.29-.76.67-.97,1.14-.54,1.21.11,2.89,1.41,3.18l.53-1.8c1.55.3,2.79,1.56,3.47,2.98.68,1.43.91,3.02,1.13,4.59.93,6.56,2,13.2,4.33,19.36-.62-4.95-1.11-10.69-1.99-16.37Z"/>
  <g>
    <path class="cls-2" d="m58.75,67.99c-1.34,8.61-1.78,17.33-3.12,23.27.04.1.08.19.13.29,1.98-8.79,3.95-17.57,5.93-26.36.62-2.75,1.28-5.6,2.98-7.84,1.05-1.38,2.61-2.48,4.28-2.88-3.28.19-8.44,2.23-10.19,13.52Z"/>
    <path class="cls-2" d="m72.12,54.79l.58,2.31c.3-.42.51-.88.64-1.36-.42-.48-.85-.78-1.22-.94Z"/>
  </g>
  <path class="cls-13" d="m79.88,89.7c6.72,3.02,9.41,3.36,16.8,1.34,7.39-2.02,11.09-3.02,13.77-2.02,0,0-4.7-4.03-12.77-.67-8.06,3.36-17.8,1.34-17.8,1.34Z"/>
  <path class="cls-2" d="m67.61,162.07l1.82-1.59c-.86-.16-1.7.12-2.39.64.13.32.31.67.57.96Z"/>
</svg>