<?xml version="1.0" encoding="UTF-8"?>
<svg id="Layer_2" data-name="Layer 2" xmlns="http://www.w3.org/2000/svg" viewBox="0 0 155.54 152.92">
  <defs>
    <style>
      .cls-1 {
        fill: #eae9f3;
      }
    </style>
  </defs>
  <g id="Layer_1-2" data-name="Layer 1">
    <path class="cls-1" d="m8.53,26.51C3.61,29.31.48,34.99.72,40.64c.24,5.66,3.85,11.04,8.99,13.41,8.01,3.7,19.39.89,24.54,8.06,1.67,2.32,2.24,5.27,3.8,7.67,4.69,7.16,15.24,6.26,23.68,4.8,8.43-1.46,19.3-1.46,22.98,6.27,2.01,4.23,1.23,9.94,4.82,12.94,4.59,3.83,12.27-.17,17.29,3.09,4.05,2.63,4.3,8.62,7.64,12.11,6.67,6.97,21.66.84,26.21,9.34,4.91,9.17-11.01,18.98-7.61,28.81,1.8,5.19,8.84,7.17,13.79,4.78,4.95-2.39,7.78-7.89,8.48-13.35.7-5.45-.38-10.95-1.34-16.36-4.87-27.56-6.65-55.66-5.29-83.61.37-7.68.76-16.12-3.95-22.19-4.57-5.89-12.53-7.72-19.85-9.17C102.97,2.92,80.7-1.43,58.44.45,36.18,2.33,13.52,11.29,0,29.08"/>
  </g>
</svg>